<svg id="圖層_1" data-name="圖層 1" xmlns="http://www.w3.org/2000/svg" xmlns:xlink="http://www.w3.org/1999/xlink" viewBox="0 0 608.24 144.25"><defs><style>.cls-1{fill:none;}.cls-2{fill:#245c3f;}.cls-3{clip-path:url(#clip-path);}.cls-4,.cls-7{fill:#f5e9d4;}.cls-5{opacity:0.53;}.cls-6{fill:#3f93a2;stroke-width:4.94px;}.cls-6,.cls-7{stroke:#255c3f;stroke-miterlimit:10;}.cls-7{stroke-width:0.71px;}</style><clipPath id="clip-path"><rect class="cls-1" x="9.58" y="0.83" width="589.21" height="146.42"/></clipPath></defs><rect class="cls-2" x="6.78" y="-774" width="6.63" height="1523.02"/><rect class="cls-2" x="595.47" y="-774" width="6.63" height="1523.02"/><rect class="cls-2" x="0.82" y="-27.05" width="607.42" height="27.58"/><g class="cls-3"><path class="cls-4" d="M98.37,54l12.92,4.38a46.31,46.31,0,0,0,8.45-4.52l4,4A46.76,46.76,0,0,1,118.93,61l5.69,1.91L122,67.79l-10.62-3.45c-1.17.42-2.39.79-3.66,1.16l2.89,1L109.76,68H126.3v6H106.14l-2.26,3.78h4.25V75h7.5v2.76h8.63V93.5H115.9l1.49-2.24V84h-1.76V95.79h-7.5V84h-1.72V93.5h-7V85.29L95.75,91.4l-5.11-5L98.32,74H92.13V68h9.94l.86-1.36a62.45,62.45,0,0,1-6.24.94L94,62.71c2.85-.42,5.51-.84,8-1.4l-6.51-2.15Z"/><path class="cls-4" d="M137.77,61.49h4.75V54.4h6.87v7.09h4.25v6.58h-4.16l5,9.47-2.93,7-2.17-5.18V95.83h-6.87v-14L140.08,89l-4.79-4.39,7.23-16.52h-4.75Zm17.58,0h4.34V54.4h6.92v7.09h4.7v6.58h-4.57l7.37,16.52-5,4.39-2.48-7.52V95.83h-6.92V81.56L157.25,89l-5-4,7.33-16.94h-4.21Z"/><path class="cls-4" d="M194.26,55.33h11.39V95.88h-5.6l1.08-1.82V83H200l-.41,12.88h-5.06l0-2.8-4.25,3.31-2.71-3.73q-1.22,1.89-2.71,3.78l-4.43-2.85a35.85,35.85,0,0,0,3.71-5.78l-3.39-4.71,1.49-16.9H181V59.58h1.86l.4-4.81,6,.38-.5,4.43h5.15c0,10.4-.09,18.9-3.11,26.83l3.84,5.83.18-9.24h-.91V77.26h1l.09-4.43h-.68V67.09h.81l.1-5.46h-.91ZM188,66.2,186.49,80l.41.65a61.21,61.21,0,0,0,1.85-14.42Zm12.16,11.06h1V72.83h-.86Zm.49-15.63-.18,5.46h.68V61.63Zm10.76,34.25V92.8h1.54c4.11,0,5.37-4.94,5.37-9.1,0-4.43-1.89-8.91-3-11.57l3.34-16.75h-12v40.5Zm0-27.2v-7h1.27Zm0,17.4V74.88c1,2.38,2.08,5.56,2.08,7.61,0,.56,0,3.59-2,3.59Z"/><path class="cls-4" d="M238.5,61.49h7.78V54.4h7.27v7.09h9.31V68h-8.72A86,86,0,0,0,257,77.92l3.75-2.76,3.16,5.46-4.52,3.5a68.94,68.94,0,0,0,4.3,8.77l-6.29,3.36a93.72,93.72,0,0,1-5-11.52v7.74L240.13,96V83.8l-1.31,1.58-1.63-3.31V95.83h-6.87V77.22L229.1,79.6l-4.25-5,10.53-20.72,5.83,2-4,7.89V77.45L245.24,68H238.5ZM248.81,73.2l-1.95,2.38v10.6l5.34-2A94.91,94.91,0,0,1,248.81,73.2Z"/><path class="cls-4" d="M272.12,75.82c0-2.94,1.22-4.2,4.16-4.2s4.16,1.26,4.16,4.2-1.31,4.2-4.16,4.2S272.12,78.76,272.12,75.82Z"/><path class="cls-4" d="M291.28,57.76h12.39V54.4h8v3.36h12.43V63H291.28ZM299,95.83V82h17.31V93.73l-1.53,2.1h8.72V76.33H291.87v19.5Zm-3.3-21h23.87V64.53H295.71Zm4.57,18.57h14.78V83.42H300.28ZM303,70.45V68.86h9.13v1.59ZM306,89.21V87.58h3.39v1.63Z"/><g class="cls-5"><path class="cls-2" d="M306.23,740.9c-4.72,0-9.52,0-14.25-.12l14.08-354.15h0v-.05h0l0-.31-.07.08v-.09l.08-.08h0l.14-.13-.07-.08-.06,0v0h0l0,0h0v0h0v0l0-.05.06,0v-.05l-.06,0h.06v0H306l0,0h0v0h.2l0,.05h0l0,0h0l0,0,.14.07h-.07l-.09,0,0,.05h0l0,0h0l0,0h.09l0,0h-.05l0,0h0l.08.11,0-.13h-.08l0,0,.06,0h0l0,0h0l0-.07h0l.06,0-.06,0h.06v0l0,0h.07l.07.1h-.05v0l.15.06.06.07-.2-.1v.06L653.74,657.49a594.24,594.24,0,0,1-63.3,30.21L306.74,386.62l0-.05v0l-.07-.08h0l-.23-.41,0,.2h0l0,.27.18,0,.16.23,63,351.67C348.78,740.08,327.41,740.9,306.23,740.9Zm-.13-354.65.09.3.13-.37-.09-.1Zm.38-.22,0,0,0,0Zm0,0h0Zm0,0Zm-.39-.13h0Zm0,0h0l0,0h0Zm0,0Zm.35,0Zm-.34-.1,0,0,0,0Zm-91.87,350c-25.76-2.92-51.4-7.11-76.23-12.47L305.54,387,65.27,703.59a648.83,648.83,0,0,1-67.4-26.34L305.69,386.57l-.06.23.14-.27.1,0-.26.34Zm232.58-7L306.89,387,521,711.62A743.56,743.56,0,0,1,446.81,728.69ZM-62.85,644.88a477.55,477.55,0,0,1-53-37.75l421-220.94.06.09.21-.07.17-.19-.15,0,.22-.1h0l.09-.07-.24.05h0l.29-.08.05-.06.08,0h0l.06,0v0h0l-.08.13h-.06l-.08.05h0l-.21.18.31-.12v0h0l0,.08-.26.13Zm772.53-23.23L307.24,386.28a.7.7,0,0,0,.12-.18l-.5-.05-.17-.11h0l.66.13v0l-.51-.12h.21l.4.17.23,0h-.16l449.7,194.72A424.12,424.12,0,0,1,709.68,621.65Zm-869.71-57a328.51,328.51,0,0,1-34.51-46.35L304.34,386.22l-522.82,82.85a247.09,247.09,0,0,1-12.76-50.9L305.06,386l0,.06-.4.06Zm955.52-28.9L308.11,386.21l515.32,101.2A294,294,0,0,1,795.49,535.78Zm44.85-98.84L307.93,386.15l-.79-.24.41,0s0-.05,0-.12H845.93A238.49,238.49,0,0,1,840.34,436.94ZM307.18,386.36h0Zm-1.2-.29V386h0Zm0,0,0,0v0Zm0-.09h0l0,0h0v-.12h0l0,.11.05,0Zm.3,0h.05Zm-.93,0-.43,0s0,0,0-.1h.79Zm1,0Zm0,0,0,0h.05Zm.19,0,0,0h0l0,0v0h0v0h0v0l-.05-.05h0v0h0l0,0h0l-.05,0,0,0,.09,0h0l-.1,0,0,0h0l0,0h0l0,0h0v0l-.11,0h0l.11-.06h0l0,0v0h0v-.11l0,.05.06-.06-.09-.21v-.2h0l0,.13,0-.09-.18,0L271.32,31.37c11.56-.49,23.31-.74,34.91-.74,14.25,0,28.67.37,42.85,1.11L306.63,384.83l.27-.32,119.64-345A759.87,759.87,0,0,1,501.75,54.7L306.91,384.5,572.67,76.89a618.75,618.75,0,0,1,65.07,28.62L306.66,385.22l.24-.71-.3.5-.1.34,0,.11-.1,0,.11,0h0v.07l0-.07.12,0-.15.11v0l.07,0,0,.05h0v0h0l0,.06,0,0,.08,0,0,0-.07,0,.05,0,0,0v0l.11,0h.47l-.31.05.08,0-.1,0-.24,0h-.06Zm0-.06,0,0h0Zm0,0v0h0Zm0,0,.06,0-.05,0Zm0,0h0l0,0h0Zm0,0h0Zm0,0,0,0h0Zm0-.09h0Zm.08,0h0Zm0,0h0Zm-.19-.07v0Zm.13-.59,0,.08.05-.06Zm-.12.84h0Zm-.15,0h0l0,0Zm0,0h0Zm-.08,0h0Zm-.17,0h0l-.05,0h-.1l-.13-.07h-.05l-.24-.12.38.05-.05-.05-.46-.14,0,.06L-128.35,175.16a455.42,455.42,0,0,1,50.75-39l383,249.11-.11-.07.07,0,0,0,.06.05.4.17,0,.09-.36-.2.38.27h-.05l.07.05H306l0,.06h0l-.07,0v0h0Zm0-.05h0Zm.05,0h0l0,0h0Zm0,0,0,0Zm-1,.1.3,0,.13,0Zm1.74,0,0,0h.05Zm0,0,0,0h-.08l.11,0,.15-.14.44-.06a1,1,0,0,0-.14-.18L695.74,139.94a447,447,0,0,1,49.86,39.57L307.48,385.37l.68-.09,478.2-161.79a307.79,307.79,0,0,1,30.73,47.57L308.52,385.24,837,321.1a240.79,240.79,0,0,1,8.58,51.14L307.16,385.62l.67-.22-.89.22h-.26Zm-1.65-.08L-232.73,367A242.36,242.36,0,0,1-223,315.91l527.29,69.41L-201.95,266a313.22,313.22,0,0,1,31.82-47.27L304.6,385.36l.5.07a.43.43,0,0,0,0,.07l-.2-.05.19.07Zm.92,0h0Zm0,0h0Zm.75-.14.13-.06,0,0Zm-.64-.09-.14-.26.16.19Zm1.12-.16Zm-1.48-.11L-18.81,102.25a626.1,626.1,0,0,1,65.72-28L305.6,384.71l.1.32Zm-.17-.67L118.24,52.82a764.86,764.86,0,0,1,75.52-14.43Z"/></g><polyline class="cls-2" points="30.71 0.82 30.71 70.45 24.09 70.45 24.09 0.82"/><polyline class="cls-2" points="47.47 0.82 47.47 70.45 40.84 70.45 40.84 0.82"/><polyline class="cls-2" points="64.22 0.82 64.22 70.45 57.59 70.45 57.59 0.82"/><polyline class="cls-2" points="80.98 0.82 80.98 70.45 74.35 70.45 74.35 0.82"/><polyline class="cls-2" points="97.73 0.82 97.73 70.45 91.1 70.45 91.1 0.82"/><polyline class="cls-2" points="114.48 0.82 114.48 70.45 107.86 70.45 107.86 0.82"/><polyline class="cls-2" points="131.24 0.82 131.24 70.45 124.61 70.45 124.61 0.82"/><polyline class="cls-2" points="147.99 0.82 147.99 70.45 141.37 70.45 141.37 0.82"/><polyline class="cls-2" points="164.75 0.82 164.75 70.45 158.12 70.45 158.12 0.82"/><polyline class="cls-2" points="181.5 0.82 181.5 70.45 174.88 70.45 174.88 0.82"/><polyline class="cls-2" points="198.25 0.82 198.25 70.45 191.63 70.45 191.63 0.82"/><polyline class="cls-2" points="215.01 0.82 215.01 70.45 208.38 70.45 208.38 0.82"/><polyline class="cls-2" points="231.76 0.82 231.76 70.45 225.14 70.45 225.14 0.82"/><polyline class="cls-2" points="248.52 0.82 248.52 70.45 241.89 70.45 241.89 0.82"/><polyline class="cls-2" points="265.27 0.82 265.27 70.45 258.65 70.45 258.65 0.82"/><polyline class="cls-2" points="282.03 0.82 282.03 70.45 275.4 70.45 275.4 0.82"/><polyline class="cls-2" points="298.78 0.82 298.78 70.45 292.15 70.45 292.15 0.82"/><polyline class="cls-2" points="315.54 0.82 315.54 70.45 308.91 70.45 308.91 0.82"/><polyline class="cls-2" points="332.29 0.82 332.29 70.45 325.66 70.45 325.66 0.82"/><polyline class="cls-2" points="349.04 0.82 349.04 70.45 342.42 70.45 342.42 0.82"/><polyline class="cls-2" points="365.8 0.82 365.8 70.45 359.17 70.45 359.17 0.82"/><polyline class="cls-2" points="382.55 0.82 382.55 70.45 375.93 70.45 375.93 0.82"/><polyline class="cls-2" points="399.31 0.82 399.31 70.45 392.68 70.45 392.68 0.82"/><polyline class="cls-2" points="416.06 0.82 416.06 70.45 409.43 70.45 409.43 0.82"/><polyline class="cls-2" points="432.81 0.82 432.81 70.45 426.19 70.45 426.19 0.82"/><polyline class="cls-2" points="449.57 0.82 449.57 70.45 442.94 70.45 442.94 0.82"/><polyline class="cls-2" points="466.32 0.82 466.32 70.45 459.7 70.45 459.7 0.82"/><polyline class="cls-2" points="483.08 0.82 483.08 70.45 476.45 70.45 476.45 0.82"/><polyline class="cls-2" points="499.83 0.82 499.83 70.45 493.21 70.45 493.21 0.82"/><polyline class="cls-2" points="516.59 0.82 516.59 70.45 509.96 70.45 509.96 0.82"/><polyline class="cls-2" points="533.34 0.82 533.34 70.45 526.71 70.45 526.71 0.82"/><polyline class="cls-2" points="550.1 0.82 550.1 70.45 543.47 70.45 543.47 0.82"/><polyline class="cls-2" points="566.85 0.82 566.85 70.45 560.22 70.45 560.22 0.82"/><polyline class="cls-2" points="583.6 0.82 583.6 70.45 576.98 70.45 576.98 0.82"/><path class="cls-6" d="M597.12,67.39v75.73c-74.51-29.95-178.38-48.55-293.27-48.55S85.07,113.17,10.57,143.13V67.39c74.5-25.3,178.38-41,293.28-41S522.61,42.09,597.12,67.39Z"/><path class="cls-7" d="M52.94,106.6a38.14,38.14,0,0,1-4.26,14.7c-.29-.3-.63-.61-1-.94s-.79-.67-1.22-1-.86-.65-1.29-.94a9.44,9.44,0,0,0-1.18-.68,24.49,24.49,0,0,0,2.85-6.94,46.94,46.94,0,0,0,1.3-8.81Q45.61,99.67,43,97.5c-1.78-1.46-3.5-2.81-5.16-4.08L40.2,89l3.89,3q2,1.55,4.06,3.21c-.1-1.94-.28-3.91-.52-5.92s-.54-4-.92-6.11L36,86.39,34.33,81,46.25,77.4l.75-.49,3.32.14q1.41,6.33,2.14,11.9a86.39,86.39,0,0,1,.78,10.49q2.05,1.88,3.8,3.63a42.48,42.48,0,0,1,3.05,3.38l-2.68,5.18c-.61-.78-1.29-1.59-2-2.42S53.81,107.51,52.94,106.6Zm27.52-.2q-.25.55-.54,1.29a15.83,15.83,0,0,0-.53,1.56c-.16.55-.3,1.09-.43,1.61s-.22,1-.29,1.44a25.24,25.24,0,0,1-5.13-2.47,30.4,30.4,0,0,1-4.62-3.61,34.25,34.25,0,0,1-2.51,5.7A32.84,32.84,0,0,1,63,116.85a11.45,11.45,0,0,0-1-1c-.38-.37-.78-.75-1.19-1.12a14.49,14.49,0,0,0-1.25-1c-.42-.3-.8-.56-1.15-.77a25.66,25.66,0,0,0,6.17-11.38,65.51,65.51,0,0,1-6-8.94q-2.82-5-5.53-11l1.69-.88-2,.59L51.2,75.9l13.33-4.05.71-.47,3.34.08a101,101,0,0,1,2.34,15.86,58.19,58.19,0,0,1-.55,12.9,29.08,29.08,0,0,0,4.8,3.84A19.65,19.65,0,0,0,80.46,106.4ZM57.35,79.9q1.9,4.3,4,8.09a66.5,66.5,0,0,0,4.43,7A66.72,66.72,0,0,0,65,77.6Z"/><path class="cls-7" d="M120.74,95.24l1.21,5.19-34.83,8.12-1.2-5.18,15.15-3.53-1.21-5.19L89.66,97l-1.17-5,10.19-2.38-1.12-4.79-8,1.86a28.25,28.25,0,0,1-1.66,4.52q-.45-.3-1.05-.63l-1.24-.67c-.43-.24-.86-.47-1.29-.67a10.24,10.24,0,0,0-1.14-.5,24.18,24.18,0,0,0,2.09-5.32,31.37,31.37,0,0,0,1.06-6.09l2.91.29c-.41-.72-.94-1.54-1.57-2.46s-1.28-1.84-1.94-2.74l-.56.13c-.29,1.49-.63,2.91-1,4.24S83.4,79.33,83,80.42c-.29-.17-.63-.37-1-.58s-.82-.42-1.27-.62l-1.31-.57-1.13-.45a28.76,28.76,0,0,0,2.27-6.93,47.89,47.89,0,0,0,1-8.11l4.85.34-.15,1.88c0,.62-.11,1.27-.18,1.93l8.77-2,.93,4A27.89,27.89,0,0,0,97,64.52a36.48,36.48,0,0,0,.57-5.11l4.81.36c0,.62-.11,1.25-.16,1.9s-.14,1.28-.25,1.92L113.12,61l1.12,4.79L108,67.23a36.46,36.46,0,0,1,2.89,3.41l-3.74,3.17a27.07,27.07,0,0,0-1.91-2.54c-.79-1-1.61-1.89-2.44-2.82l-1.82.42a39.77,39.77,0,0,1-2.19,6.23l1.47-.34.92,3.92,12.81-3,1.17,5-12.81,3,1.12,4.8,11.34-2.65,1.18,5-11.34,2.64,1.21,5.18ZM91.29,77.81c-.05.53-.11,1.06-.2,1.61s-.16,1.1-.25,1.67l5.55-1.3-.92-3.92,2.42-.57c-.58-.34-1.26-.7-2-1.08a20.91,20.91,0,0,0-2-.87,17,17,0,0,0,1.56-3.17l-4.84,1.13c.47.6.92,1.18,1.33,1.75a17.31,17.31,0,0,1,1,1.57l-3.34,3Z"/><path class="cls-7" d="M134.94,75.74a37.31,37.31,0,0,0,1.86,6.42,36.62,36.62,0,0,0,2.64,5.36A32.69,32.69,0,0,0,142.7,92a41,41,0,0,0,3.64,3.69L143,98.48A35.43,35.43,0,0,1,139,94.69a33.57,33.57,0,0,1-3.58-4.86,39,39,0,0,1-3-6,42.56,42.56,0,0,1-2.07-7.2,41.58,41.58,0,0,1-.84-7.46,38.85,38.85,0,0,1,.43-6.7,33.47,33.47,0,0,1,1.45-5.84,37.34,37.34,0,0,1,2.17-5l4.2,1.3a43.15,43.15,0,0,0-2,4.77,31,31,0,0,0-1.3,5.35,36,36,0,0,0-.39,6A37.48,37.48,0,0,0,134.94,75.74Z"/><path class="cls-7" d="M144.9,57.91l5.9,38.63-4.31.66L139.8,53.36,148.86,52l.64-.35,3.66,1.81c-.08,1.09-.19,2.23-.3,3.44s-.24,2.41-.36,3.6-.25,2.37-.39,3.53l-.39,3.23a17.36,17.36,0,0,1,3.12,4.9,22,22,0,0,1,1.25,4.54,16,16,0,0,1,.18,4,4.63,4.63,0,0,1-1.07,2.61,2.86,2.86,0,0,1-.91.89,5.64,5.64,0,0,1-1.22.54,10.62,10.62,0,0,1-1.21.31l-1.34.23a19.41,19.41,0,0,0-.73-2.58,11.49,11.49,0,0,0-1.2-2.51c.38,0,.7-.06.95-.09l.71-.11a1.38,1.38,0,0,0,1.34-1.19,8.07,8.07,0,0,0-.06-2.28,16.68,16.68,0,0,0-1.09-3.73,14.43,14.43,0,0,0-2.85-4.27c.07-.81.13-1.69.2-2.62s.11-1.88.16-2.84.09-1.93.13-2.91.09-1.89.12-2.74ZM171.08,92a4.87,4.87,0,0,1-2.22,1.27,28.22,28.22,0,0,1-3.25.67,17,17,0,0,0-.89-2.68,27.37,27.37,0,0,0-1.25-2.68,18.24,18.24,0,0,0,2-.23l1.32-.23a.91.91,0,0,0,.46-.24,1.11,1.11,0,0,0,0-.64l-2-13.27-3.83.59a13.41,13.41,0,0,0-2.34.55,2.25,2.25,0,0,0-1.28.8c-.1-.28-.24-.65-.44-1.11s-.41-.93-.65-1.41-.47-1-.71-1.45l-.65-1.29a2.37,2.37,0,0,0,1-1.43,23.35,23.35,0,0,0,.66-2.79,19.21,19.21,0,0,0,.35-2.42c.12-1.12.24-2.43.37-3.93l-3.94.6L153,55.36l5.07-.77q.08-1.67.09-3.36c0-1.12,0-2.25,0-3.39h5.4c0,1-.09,2-.14,3s-.12,2-.19,3l12.77-2,.81,5.36-14.13,2.16c-.22,1.77-.46,3.5-.71,5.16s-.54,3.24-.87,4.74l3.43-.53-1-6.63,4.67-.72,1,6.64,7.85-1.2.76,5.27L170,73.3,172,86.72a12.66,12.66,0,0,1,.16,3.24A3.19,3.19,0,0,1,171.08,92Zm-7.27-12.82c-.21,1.13-.47,2.31-.76,3.53s-.62,2.43-1,3.62-.75,2.34-1.17,3.42a32.72,32.72,0,0,1-1.34,3,18.92,18.92,0,0,0-1.9-1.57c-.76-.56-1.4-1-1.92-1.37a22.72,22.72,0,0,0,1.15-2.59c.36-1,.68-2,1-3s.52-2,.73-3.06a28.11,28.11,0,0,0,.42-2.85Zm12-3.79c.52.86,1.08,1.76,1.67,2.71s1.19,1.9,1.76,2.85,1.11,1.86,1.61,2.72.92,1.62,1.27,2.27l-3.63,3.22c-.32-.69-.73-1.49-1.21-2.41s-1-1.86-1.54-2.83S174.61,82,174,81s-1.12-1.91-1.64-2.77Z"/><path class="cls-7" d="M199.9,65.87c.07,2.59,0,5.06-.11,7.43A28,28,0,0,1,198.55,80a20,20,0,0,1-3,5.83,19.7,19.7,0,0,1-5.48,4.86,9.84,9.84,0,0,0-.67-1.15c-.28-.42-.57-.83-.88-1.23s-.65-.79-1-1.15a12.12,12.12,0,0,0-1-1,16.63,16.63,0,0,0,4.71-3.91,14.32,14.32,0,0,0,2.49-4.66,21.23,21.23,0,0,0,.93-5.32q.13-2.8,0-5.9l-9.15.95-.6-5.74,36.14-3.73.59,5.74L211,64.72l1.56,15.14a3.43,3.43,0,0,0,.47,1.77c.21.23.66.31,1.33.24L218,81.5a1.16,1.16,0,0,0,.78-.41,2.5,2.5,0,0,0,.38-1.26,19.1,19.1,0,0,0,0-2.58q-.08-1.66-.27-4.35a8.93,8.93,0,0,0,2.29,1.27,13.05,13.05,0,0,0,2.43.75,50.06,50.06,0,0,1,0,5.57A12.43,12.43,0,0,1,223,84.1a4.15,4.15,0,0,1-1.51,2,5.36,5.36,0,0,1-2.52.81l-4.86.51a8.69,8.69,0,0,1-2.86-.11,3.68,3.68,0,0,1-1.89-1.1A5.86,5.86,0,0,1,208.17,84a21.76,21.76,0,0,1-.63-3.61L206,65.24Zm16.06-21,.58,5.69-28.76,3-.59-5.69Z"/><path class="cls-7" d="M229.86,54.38c.66.23,1.38.5,2.14.82s1.52.67,2.25,1,1.41.77,2.06,1.18A17.85,17.85,0,0,1,238,58.59l-2.4,5.12A13.21,13.21,0,0,0,234,62.46c-.62-.43-1.29-.86-2-1.28s-1.45-.82-2.21-1.19-1.47-.71-2.14-1ZM231.78,41c.66.26,1.36.56,2.09.9s1.45.71,2.16,1.12,1.4.83,2,1.25a13.19,13.19,0,0,1,1.65,1.3l-2.53,5a14,14,0,0,0-1.57-1.35c-.61-.47-1.27-.93-2-1.38s-1.43-.89-2.18-1.3-1.45-.75-2.12-1.05Zm8.68,29q-1.36,4-2.94,8c-1.06,2.72-2.12,5.3-3.21,7.76L230,82c.5-.92,1-2,1.57-3.23s1.14-2.52,1.74-3.88,1.19-2.78,1.77-4.26,1.13-2.93,1.65-4.35Zm24.6-22a70.45,70.45,0,0,1-2.43,13.44,49.43,49.43,0,0,1-4.42,10.64A37.43,37.43,0,0,1,252,80.22a36,36,0,0,1-7.78,5.85c-.18-.39-.41-.8-.66-1.25s-.53-.9-.81-1.35-.58-.88-.89-1.3a9,9,0,0,0-.9-1,29.07,29.07,0,0,0,7.12-5,32.39,32.39,0,0,0,5.68-7.22,40.37,40.37,0,0,0-4-3.08,37.69,37.69,0,0,0-4.23-2.57l2.76-4.5A41.27,41.27,0,0,1,252.47,61a39.15,39.15,0,0,1,3.91,2.74,51.75,51.75,0,0,0,3-10.93l-10.2.58a60.62,60.62,0,0,1-3.34,6.8,44.34,44.34,0,0,1-3.78,5.57l-.95-.92c-.38-.36-.78-.73-1.21-1.1s-.86-.73-1.29-1.07-.79-.62-1.1-.84A29.46,29.46,0,0,0,241,57.4,42.38,42.38,0,0,0,244,52a52.18,52.18,0,0,0,2.38-6.16,66.32,66.32,0,0,0,1.74-6.62l5.22,1.24q-.82,3.63-2,7.14l9.51-.55.8-.3Z"/><path class="cls-7" d="M275.63,61.3a41.62,41.62,0,0,1-.47,7.47,37.69,37.69,0,0,1-1.58,6.5,35.33,35.33,0,0,1-2.42,5.52,32.37,32.37,0,0,1-3,4.55l-3.91-2A36.81,36.81,0,0,0,267,79a33.11,33.11,0,0,0,2.19-5.07,37,37,0,0,0,1.42-5.8A37.43,37.43,0,0,0,271,61.4a38.28,38.28,0,0,0-.72-6.67A36.62,36.62,0,0,0,268.63,49,31.89,31.89,0,0,0,266.22,44a37.12,37.12,0,0,0-3-4.24l3.82-2.17A31.78,31.78,0,0,1,270.29,42,34.14,34.14,0,0,1,273,47.38a39,39,0,0,1,1.87,6.45A42.64,42.64,0,0,1,275.63,61.3Z"/><path class="cls-7" d="M368.7,85l-3.44,1.12-6.88-23.86,9.3-23L371,40.73l-8.83,21.75Zm7,.36-3.48,1.12-6.84-23.85,9.27-23L378,41.09l-8.88,21.75Z"/><path class="cls-7" d="M417,69.1l-2.37,21.15-5.18-.58,2.37-21.15-15.54-1.74L397,61l15.55,1.74,1.1-9.88q-3.09.15-6.19.18t-6,0a12,12,0,0,0,0-1.31c-.05-.47-.1-1-.17-1.44s-.14-1-.23-1.43-.18-.86-.27-1.21c2.45,0,4.95,0,7.5,0s5-.19,7.44-.37,4.71-.41,6.9-.7a58.63,58.63,0,0,0,5.86-1l3.08,5.35a51.77,51.77,0,0,1-6,1.08c-2.12.26-4.31.49-6.57.67l-1.2,10.77,15.94,1.78L433,70.88Z"/><path class="cls-7" d="M474.28,88.43,472.4,98.91,467.47,98l1.88-10.47-18-3.24,1-5.58,6.34,1.14L461,67.05l11.71,2.1,1-5.87-8.58-1.54a49.53,49.53,0,0,1-3.53,4.44,35.78,35.78,0,0,1-3.52,3.48c-.19-.3-.43-.66-.72-1.06s-.59-.82-.91-1.25-.64-.84-1-1.23a10.19,10.19,0,0,0-.86-1,25.66,25.66,0,0,0,3.19-2.76,36.79,36.79,0,0,0,3-3.52,46.55,46.55,0,0,0,2.76-4.1,47.94,47.94,0,0,0,2.36-4.4l4.58,2.39a37.91,37.91,0,0,1-2,3.77l22.65,4.07-1,5.63-11.51-2.07L477.59,70l10.58,1.91-1,5.38-10.58-1.9-1.34,7.44L489,85.32l-1,5.58Zm-10.86-7.71L470.35,82l1.34-7.44-6.93-1.24Z"/><path class="cls-7" d="M520.2,92.58q-2.52,3.36-5.35,6.83c-1.9,2.31-3.74,4.5-5.55,6.57l-3-4.93c.76-.76,1.61-1.65,2.54-2.65s1.9-2.09,2.88-3.24,2-2.35,3-3.6,2-2.5,3-3.73ZM514.81,74c.55.45,1.15,1,1.78,1.54s1.26,1.16,1.87,1.75,1.17,1.17,1.7,1.77a20.61,20.61,0,0,1,1.32,1.66l-3.83,4.19c-.32-.49-.72-1.05-1.21-1.68s-1-1.25-1.6-1.9-1.2-1.3-1.81-1.94-1.22-1.21-1.79-1.7Zm5.58-12.37c.54.48,1.12,1,1.74,1.61s1.22,1.2,1.8,1.83,1.12,1.26,1.61,1.88.91,1.19,1.23,1.68l-4,4.06c-.29-.52-.66-1.1-1.12-1.76s-1-1.3-1.53-2-1.14-1.32-1.74-2-1.17-1.24-1.71-1.76Zm2.49,45.55-.71,2.7-4.77-1.24,11.18-42.92L550,71.31l-11.07,42.53-5-1.31.6-2.31Zm1.45-5.58,11.59,3,1.63-6.26-11.59-3Zm3-11.69L539,93l1.57-6-11.59-3Zm3-11.45,11.59,3,1.61-6.15-11.59-3Z"/><path class="cls-7" d="M574.24,103.27l-14,17.4-2.5-2.14,13.33-16.4L571.3,81l3.29,0Zm6,2.16-14,17.38-2.47-2.12L577,104.27l.27-21.13,3.25-.06Z"/></g><path class="cls-4" d="M292.27,49.12c0,.17,0,.34,0,.53s0,.38,0,.58a5.63,5.63,0,0,1,0,.58c0,.19,0,.36,0,.53V54.1h-1V47.45h1.19l1.12,3.13c.07.21.13.42.2.63l.21.64h0l.21-.64c.07-.21.14-.42.2-.63l1.08-3.13h1.2V54.1h-1V51.34c0-.17,0-.34,0-.53a5.63,5.63,0,0,1,0-.58c0-.2,0-.39,0-.58s0-.36,0-.53h0l-.53,1.6-1,2.78h-.63l-1-2.78-.52-1.6Z"/><path class="cls-4" d="M303.83,51.12a5.23,5.23,0,0,1-.17,1.41,2.69,2.69,0,0,1-.47,1,1.74,1.74,0,0,1-.75.54,2.5,2.5,0,0,1-1,.18,2.45,2.45,0,0,1-1-.18,1.81,1.81,0,0,1-.73-.54,2.53,2.53,0,0,1-.46-1,5.26,5.26,0,0,1-.16-1.41V47.45h1v3.79a3.15,3.15,0,0,0,.1.87,1.53,1.53,0,0,0,.26.56,1,1,0,0,0,.4.3,1.31,1.31,0,0,0,.5.09A1.39,1.39,0,0,0,302,53a1,1,0,0,0,.41-.3,1.53,1.53,0,0,0,.26-.56,3.15,3.15,0,0,0,.1-.87V47.45h1.09Z"/><path class="cls-4" d="M310.18,52.23A2,2,0,0,1,310,53a1.88,1.88,0,0,1-.44.63,2,2,0,0,1-.68.42,2.59,2.59,0,0,1-.91.15,3.05,3.05,0,0,1-1.24-.25,3,3,0,0,1-1-.74l.62-.92a2.17,2.17,0,0,0,.37.31,2.86,2.86,0,0,0,.42.24,2.28,2.28,0,0,0,.44.15,1.72,1.72,0,0,0,.44.06,1.84,1.84,0,0,0,.41,0,1.1,1.1,0,0,0,.33-.14.73.73,0,0,0,.24-.22.54.54,0,0,0,.09-.31A.67.67,0,0,0,309,52a1.07,1.07,0,0,0-.23-.25,1.69,1.69,0,0,0-.33-.19l-.4-.17-.78-.33a3.47,3.47,0,0,1-.46-.25,2.1,2.1,0,0,1-.41-.38,2,2,0,0,1-.3-.52,1.78,1.78,0,0,1-.12-.67,2,2,0,0,1,.16-.77,1.85,1.85,0,0,1,.42-.61,1.81,1.81,0,0,1,.66-.39,2.23,2.23,0,0,1,.83-.15,2.77,2.77,0,0,1,2,.88l-.58.87a2.76,2.76,0,0,0-.66-.45,1.85,1.85,0,0,0-.78-.16,1.47,1.47,0,0,0-.36,0,1,1,0,0,0-.3.13.63.63,0,0,0-.21.22.57.57,0,0,0-.08.32.53.53,0,0,0,.09.3,1.06,1.06,0,0,0,.24.23,1.36,1.36,0,0,0,.34.18l.39.16.77.33a2.19,2.19,0,0,1,.5.27,1.9,1.9,0,0,1,.41.39,2,2,0,0,1,.27.52A2.28,2.28,0,0,1,310.18,52.23Z"/><path class="cls-4" d="M316.13,53v1.1h-4.06V53h1.48V48.56h-1.48V47.45h4.06v1.11h-1.5V53Z"/><path class="cls-4" d="M322.75,53.23a2.64,2.64,0,0,1-.86.73,2.21,2.21,0,0,1-1.08.25,2.62,2.62,0,0,1-1.09-.22,2.32,2.32,0,0,1-.87-.65,3.09,3.09,0,0,1-.58-1.06,4.68,4.68,0,0,1-.21-1.46,5.07,5.07,0,0,1,.2-1.47,3.41,3.41,0,0,1,.57-1.09,2.64,2.64,0,0,1,.88-.68,2.57,2.57,0,0,1,1.11-.24,2.62,2.62,0,0,1,.57.07,3.43,3.43,0,0,1,.48.19,2,2,0,0,1,.41.28,3.59,3.59,0,0,1,.35.32l-.59.86a2.63,2.63,0,0,0-.54-.42,1.34,1.34,0,0,0-.66-.16,1.46,1.46,0,0,0-.69.16,1.39,1.39,0,0,0-.52.45,2.18,2.18,0,0,0-.34.72,3.9,3.9,0,0,0,0,1.92,2.19,2.19,0,0,0,.34.72,1.5,1.5,0,0,0,.53.45,1.58,1.58,0,0,0,.69.15,1.42,1.42,0,0,0,.73-.19,2.53,2.53,0,0,0,.59-.49Z"/><path class="cls-4" d="M301,69.4a5.43,5.43,0,0,1-.18,1.45,3.37,3.37,0,0,1-.54,1.09,2.31,2.31,0,0,1-.85.68,2.51,2.51,0,0,1-1.11.24,2.44,2.44,0,0,1-1.08-.24,2.31,2.31,0,0,1-.85-.68,3.4,3.4,0,0,1-.56-1.09,5,5,0,0,1-.2-1.45,4.86,4.86,0,0,1,.2-1.44,3,3,0,0,1,.55-1.07,2.5,2.5,0,0,1,.85-.67,2.81,2.81,0,0,1,2.18,0,2.5,2.5,0,0,1,.85.67,3.48,3.48,0,0,1,.55,1.07A4.88,4.88,0,0,1,301,69.4Zm-4.26,0a3.57,3.57,0,0,0,.11,1,2.44,2.44,0,0,0,.32.73,1.45,1.45,0,0,0,.5.46,1.4,1.4,0,0,0,1.3,0,1.45,1.45,0,0,0,.5-.46,2.21,2.21,0,0,0,.32-.73,3.57,3.57,0,0,0,.11-1,3.44,3.44,0,0,0-.11-1,2,2,0,0,0-.32-.71,1.39,1.39,0,0,0-1.8-.45,1.34,1.34,0,0,0-.5.45,2.22,2.22,0,0,0-.32.71A3.44,3.44,0,0,0,296.78,69.4Z"/><path class="cls-4" d="M304.07,70.4v2.35H303V66.1h1.94a4,4,0,0,1,.95.11,2,2,0,0,1,.75.35,1.7,1.7,0,0,1,.49.65,2.55,2.55,0,0,1,.17,1,2.48,2.48,0,0,1-.18,1,1.86,1.86,0,0,1-.48.68,2,2,0,0,1-.74.4,3,3,0,0,1-.92.14Zm0-1.05h.82c.89,0,1.34-.38,1.34-1.15a.9.9,0,0,0-.36-.83,1.92,1.92,0,0,0-1-.22h-.79Z"/><path class="cls-4" d="M312.88,71.64v1.11h-3.81V66.1h3.71v1.1h-2.64v1.56h2v1.11h-2v1.77Z"/><path class="cls-4" d="M315.84,67.75c0,.36.05.75.08,1.15s0,.81,0,1.19v2.66h-1V66.1H316l1.82,3.48.72,1.52h0c0-.35-.07-.74-.1-1.16s0-.82,0-1.21V66.1h1v6.65h-1.1l-1.82-3.5-.71-1.5Z"/></svg>