<svg id="圖層_1" data-name="圖層 1" xmlns="http://www.w3.org/2000/svg" xmlns:xlink="http://www.w3.org/1999/xlink" viewBox="0 0 607.42 633.02"><defs><style>.cls-1{opacity:0.9;fill:url(#未命名的渐变_4);}.cls-2{fill:#245c3f;}.cls-3{fill:#bc734b;}.cls-4{fill:#f5ead5;}</style><linearGradient id="未命名的渐变_4" x1="304.36" y1="15.38" x2="306.69" y2="759.24" gradientUnits="userSpaceOnUse"><stop offset="0" stop-color="#f5ead5"/><stop offset="1" stop-color="#245c3f"/></linearGradient></defs><rect class="cls-1" x="12.74" y="1.3" width="585.06" height="604.42"/><rect class="cls-2" x="5.95" y="-141" width="6.63" height="1523.02"/><rect class="cls-2" x="594.64" y="-141" width="6.63" height="1523.02"/><rect class="cls-2" y="605.95" width="607.42" height="27.58"/><circle class="cls-3" cx="19.19" cy="619.22" r="3.39"/><circle class="cls-4" cx="37.39" cy="619.22" r="3.39"/><circle class="cls-3" cx="55.6" cy="619.22" r="3.39"/><circle class="cls-4" cx="73.8" cy="619.22" r="3.39"/><circle class="cls-3" cx="92.01" cy="619.22" r="3.39"/><circle class="cls-4" cx="110.21" cy="619.22" r="3.39"/><circle class="cls-3" cx="128.42" cy="619.22" r="3.39"/><circle class="cls-4" cx="146.62" cy="619.22" r="3.39"/><circle class="cls-3" cx="164.83" cy="619.22" r="3.39"/><circle class="cls-4" cx="183.03" cy="619.22" r="3.39"/><circle class="cls-3" cx="201.23" cy="619.22" r="3.39"/><circle class="cls-4" cx="219.44" cy="619.22" r="3.39"/><circle class="cls-3" cx="237.64" cy="619.22" r="3.39"/><circle class="cls-4" cx="255.85" cy="619.22" r="3.39"/><circle class="cls-3" cx="274.05" cy="619.22" r="3.39"/><circle class="cls-4" cx="292.26" cy="619.22" r="3.39"/><circle class="cls-3" cx="310.46" cy="619.22" r="3.39"/><circle class="cls-4" cx="328.67" cy="619.22" r="3.39"/><circle class="cls-3" cx="346.87" cy="619.22" r="3.39"/><circle class="cls-4" cx="365.08" cy="619.22" r="3.39"/><circle class="cls-3" cx="383.28" cy="619.22" r="3.39"/><circle class="cls-4" cx="401.49" cy="619.22" r="3.39"/><circle class="cls-3" cx="419.69" cy="619.22" r="3.39"/><circle class="cls-4" cx="437.89" cy="619.22" r="3.39"/><circle class="cls-3" cx="456.1" cy="619.22" r="3.39"/><circle class="cls-4" cx="474.3" cy="619.22" r="3.39"/><circle class="cls-3" cx="492.51" cy="619.22" r="3.39"/><circle class="cls-4" cx="510.71" cy="619.22" r="3.39"/><circle class="cls-3" cx="528.92" cy="619.22" r="3.39"/><circle class="cls-4" cx="547.12" cy="619.22" r="3.39"/><circle class="cls-3" cx="565.33" cy="619.22" r="3.39"/><circle class="cls-4" cx="583.53" cy="619.22" r="3.39"/></svg>