<svg id="圖層_1" data-name="圖層 1" xmlns="http://www.w3.org/2000/svg" xmlns:xlink="http://www.w3.org/1999/xlink" viewBox="0 0 608.24 139.25"><defs><style>.cls-1{fill:none;}.cls-2{fill:#245c3f;}.cls-3{clip-path:url(#clip-path);}.cls-4,.cls-7{fill:#f5e9d4;}.cls-5{opacity:0.53;}.cls-6{fill:#3f93a2;stroke-width:4.94px;}.cls-6,.cls-7{stroke:#255c3f;stroke-miterlimit:10;}.cls-7{stroke-width:0.71px;}</style><clipPath id="clip-path"><rect class="cls-1" x="10.17" width="589.02" height="144.87"/></clipPath></defs><rect class="cls-2" x="6.78" width="6.63" height="1523.02"/><rect class="cls-2" x="595.47" width="6.63" height="1523.02"/><g class="cls-3"><path class="cls-4" d="M98.37,53.2l12.92,4.39a46.36,46.36,0,0,0,8.45-4.53l4,4a46.76,46.76,0,0,1-4.84,3.13l5.69,1.91L122,67l-10.62-3.46c-1.17.42-2.39.8-3.66,1.17l2.89,1-.85,1.44H126.3v6H106.14L103.88,77h4.25V74.2h7.5V77h8.63V92.68H115.9l1.49-2.24V83.2h-1.76V95h-7.5V83.2h-1.72v9.48h-7V84.46l-3.66,6.12-5.11-5,7.68-12.37H92.13v-6h9.94l.86-1.35c-2,.42-4.11.7-6.24.93L94,61.88c2.85-.42,5.51-.84,8-1.4l-6.51-2.15Z"/><path class="cls-4" d="M137.77,60.67h4.75v-7.1h6.87v7.1h4.25v6.58h-4.16l5,9.47-2.93,7-2.17-5.18V95h-6.87V81l-2.44,7.19-4.79-4.39,7.23-16.51h-4.75Zm17.58,0h4.34v-7.1h6.92v7.1h4.7v6.58h-4.57l7.37,16.51-5,4.39-2.48-7.51V95h-6.92V80.73l-2.44,7.42-5-4,7.33-16.93h-4.21Z"/><path class="cls-4" d="M194.26,54.51h11.39V95.06h-5.6l1.08-1.82V82.18H200l-.41,12.88h-5.06l0-2.8-4.25,3.31-2.71-3.73q-1.22,1.89-2.71,3.78l-4.43-2.85A35.92,35.92,0,0,0,184.14,87l-3.39-4.71,1.49-16.89H181V58.75h1.86l.4-4.8,6,.37-.5,4.43h5.15c0,10.41-.09,18.9-3.11,26.83l3.84,5.84.18-9.24h-.91V76.44h1l.09-4.43h-.68V66.27h.81l.1-5.46h-.91ZM188,65.38l-1.49,13.76.41.66a61.34,61.34,0,0,0,1.85-14.42Zm12.16,11.06h1V72h-.86Zm.49-15.63-.18,5.46h.68V60.81Zm10.76,34.25V92h1.54c4.11,0,5.37-5,5.37-9.1,0-4.43-1.89-8.91-3-11.57l3.34-16.76h-12V95.06Zm0-27.21V60.9h1.27Zm0,17.41V74.06c1,2.38,2.08,5.55,2.08,7.6,0,.56,0,3.6-2,3.6Z"/><path class="cls-4" d="M238.5,60.67h7.78v-7.1h7.27v7.1h9.31v6.48h-8.72A85.41,85.41,0,0,0,257,77.09l3.75-2.75,3.16,5.46-4.52,3.5a69.61,69.61,0,0,0,4.3,8.77l-6.29,3.36a93.92,93.92,0,0,1-5-11.53v7.75l-12.25,3.5V83l-1.31,1.59-1.63-3.32V95h-6.87V76.39l-1.22,2.38-4.25-5L235.38,53l5.83,2.06-4,7.88V76.62l8.05-9.47H238.5Zm10.31,11.71-1.95,2.38V85.35l5.34-2A94.8,94.8,0,0,1,248.81,72.38Z"/><path class="cls-4" d="M272.12,75c0-2.94,1.22-4.2,4.16-4.2s4.16,1.26,4.16,4.2-1.31,4.2-4.16,4.2S272.12,77.93,272.12,75Z"/><path class="cls-4" d="M291.28,56.93h12.39V53.57h8v3.36h12.43v5.28H291.28ZM299,95V81.15h17.31V92.91L314.79,95h8.72V75.51H291.87V95Zm-3.3-21h23.87V63.7H295.71Zm4.57,18.57h14.78V82.6H300.28ZM303,69.63V68h9.13v1.59ZM306,88.38V86.75h3.39v1.63Z"/><g class="cls-5"><path class="cls-2" d="M306.23,740.08c-4.72,0-9.52,0-14.25-.12l14.08-354.15h0v-.05h0l0-.31-.07.09v-.09l.08-.08h0l.14-.14-.07-.07-.06,0v-.05h0l0,0h0v0h0l0,0,.06,0V385l-.06,0h.06v0l-.07,0,0,0h0v0h0v0h.2l0,.05h0l0,0,.14.07h-.07l-.09,0,0,.06h0l0,0h.1l0,0h-.05l0,0h0l.08.11,0-.13h-.08l0,0,.06,0h0l0,0h0l0-.07h0v0l.06,0-.06,0h.06v0l0,0h.07l.07.09h-.05v0l.15.05.06.07-.2-.1v.06L653.74,656.67a594.24,594.24,0,0,1-63.3,30.21L306.74,385.8l0-.06v0l-.07-.07h0l-.23-.41,0,.19h0l0,.28.18,0,.16.23,63,351.68C348.78,739.25,327.41,740.08,306.23,740.08Zm-.13-354.66.09.31.13-.38-.09-.1Zm.38-.22,0,0,0,0Zm0,0h0Zm0,0Zm-.39-.12Zm0,0h0l0,0h0Zm0,0Zm.35,0Zm-.34-.1,0,0,0,0Zm-91.87,350c-25.76-2.92-51.4-7.12-76.23-12.47L305.54,386.15,65.27,702.76a644.38,644.38,0,0,1-67.4-26.34L305.69,385.74l-.06.23.14-.27.1,0-.26.34Zm232.58-7L306.89,386.15,521,710.8A746.36,746.36,0,0,1,446.81,727.87ZM-62.85,644.06a477.61,477.61,0,0,1-53-37.76l421-220.93.06.08.21-.07.17-.19-.15,0,.22-.11h0l.09-.07-.24.06h0l.29-.07.05-.06.08,0h0l.06,0v0h0l-.08.13h-.06l-.08,0h0l-.21.18.31-.12v0h0l0,.08-.26.12Zm772.53-23.23L307.24,385.45a.83.83,0,0,0,.12-.17l-.5,0-.17-.12h0l.66.13v0l-.51-.12h.21l.4.17.23.05-.16,0L757.26,580A424.19,424.19,0,0,1,709.68,620.83Zm-869.71-57a329.08,329.08,0,0,1-34.51-46.35L304.34,385.39l-522.82,82.85a246.84,246.84,0,0,1-12.76-50.89l536.3-32.14,0,.06-.4.06ZM795.49,535,308.11,385.39,823.43,486.58A294.08,294.08,0,0,1,795.49,535Zm44.85-98.84L307.93,385.33l-.79-.24.41,0,0-.12H845.93A238.58,238.58,0,0,1,840.34,436.12ZM307.18,385.54h0Zm-1.2-.3v0l0,0Zm0,0,0-.05v0Zm0-.1h0V385h0l0,.11.05,0Zm.3,0h0l.06,0h0Zm-.93,0-.43,0s0,0,0-.1h.79Zm1,0Zm0,0,0,0h.05Zm.19,0,0,0h-.08l-.05-.05h0v0h0v0l-.05,0,0,0,.09,0h0l-.1,0,0,0v0h0v0h-.12l-.11,0h0l.11-.05h0l0,0v0h0v-.1l0,.05.06-.06-.09-.21v-.2h0l0,.13,0-.09-.18,0L271.32,30.54c11.56-.49,23.31-.73,34.91-.73,14.25,0,28.67.37,42.85,1.11L306.63,384l.27-.32,119.64-345a759.89,759.89,0,0,1,75.21,15.18L306.91,383.68,572.67,76.06a616.72,616.72,0,0,1,65.07,28.63L306.66,384.39l.24-.7-.3.5-.1.33,0,.11-.1,0,.11,0h0v.08l0-.08h.12l-.15.11v0l.07,0,0,0h0l0,0h0v0h0l0,.05,0,0,.08,0h0l-.07,0,.05,0,0,0v0l.11,0h.47l-.31.05.08,0-.1,0-.24,0h-.06Zm0-.05,0,0h0l0,0Zm0,0h0Zm0,0,.06,0h-.05Zm0,0h0l0,0h0Zm0,0h0Zm0,0,0,0h0Zm0-.09h0Zm.08,0h0Zm0,0h0Zm-.19-.06h0Zm.13-.59,0,.08.05-.07Zm-.12.84,0,0Zm-.15,0h0l0,0Zm0,0h0Zm-.08,0h0Zm-.17,0h0l-.05,0h-.1l-.13-.06.14,0h-.19l-.24-.12.38.05-.05-.05-.46-.14a.1.1,0,0,0,0,.05L-128.35,174.33A455.42,455.42,0,0,1-77.6,135.28l383,249.11-.11-.07.07,0,0,0,.06.05.4.18,0,.09-.36-.21.38.27h-.05l.07.06H306v0h0l0,.07h0l-.07,0v0h0Zm0-.05h0Zm.05-.05h0l0,0h0Zm0,0,0,0Zm-1,.09.3,0,.13,0Zm1.74,0,0,0h0Zm0,0,0,0h-.08l.11,0,.15-.15.44-.05a.84.84,0,0,0-.14-.19L695.74,139.12a445.77,445.77,0,0,1,49.86,39.56L307.48,384.54l.68-.08,478.2-161.8a308.35,308.35,0,0,1,30.73,47.58L308.52,384.41,837,320.28a240.7,240.7,0,0,1,8.58,51.13L307.16,384.8l.67-.23-.89.22h-.09Zm-1.65-.08-537.76-18.56A242.39,242.39,0,0,1-223,315.09L304.31,384.5-201.95,265.2a313.14,313.14,0,0,1,31.82-47.26L304.6,384.53l.5.07a.43.43,0,0,1,0,.07l-.2,0,.19.06S305,384.72,305,384.73Zm.92,0h0Zm0,0h0Zm.75-.13.13-.07,0,0Zm-.64-.09-.14-.27.16.19Zm1.12-.16Zm-1.48-.12L-18.81,101.43a624,624,0,0,1,65.72-28L305.6,383.88l.1.32Zm-.17-.66L118.24,52a762,762,0,0,1,75.52-14.43Z"/></g><polyline class="cls-2" points="30.71 0 30.71 69.63 24.09 69.63 24.09 0"/><polyline class="cls-2" points="47.47 0 47.47 69.63 40.84 69.63 40.84 0"/><polyline class="cls-2" points="64.22 0 64.22 69.63 57.59 69.63 57.59 0"/><polyline class="cls-2" points="80.98 0 80.98 69.63 74.35 69.63 74.35 0"/><polyline class="cls-2" points="97.73 0 97.73 69.63 91.1 69.63 91.1 0"/><polyline class="cls-2" points="114.48 0 114.48 69.63 107.86 69.63 107.86 0"/><polyline class="cls-2" points="131.24 0 131.24 69.63 124.61 69.63 124.61 0"/><polyline class="cls-2" points="147.99 0 147.99 69.63 141.37 69.63 141.37 0"/><polyline class="cls-2" points="164.75 0 164.75 69.63 158.12 69.63 158.12 0"/><polyline class="cls-2" points="181.5 0 181.5 69.63 174.88 69.63 174.88 0"/><polyline class="cls-2" points="198.25 0 198.25 69.63 191.63 69.63 191.63 0"/><polyline class="cls-2" points="215.01 0 215.01 69.63 208.38 69.63 208.38 0"/><polyline class="cls-2" points="231.76 0 231.76 69.63 225.14 69.63 225.14 0"/><polyline class="cls-2" points="248.52 0 248.52 69.63 241.89 69.63 241.89 0"/><polyline class="cls-2" points="265.27 0 265.27 69.63 258.65 69.63 258.65 0"/><polyline class="cls-2" points="282.03 0 282.03 69.63 275.4 69.63 275.4 0"/><polyline class="cls-2" points="298.78 0 298.78 69.63 292.15 69.63 292.15 0"/><polyline class="cls-2" points="315.54 0 315.54 69.63 308.91 69.63 308.91 0"/><polyline class="cls-2" points="332.29 0 332.29 69.63 325.66 69.63 325.66 0"/><polyline class="cls-2" points="349.04 0 349.04 69.63 342.42 69.63 342.42 0"/><polyline class="cls-2" points="365.8 0 365.8 69.63 359.17 69.63 359.17 0"/><polyline class="cls-2" points="382.55 0 382.55 69.63 375.93 69.63 375.93 0"/><polyline class="cls-2" points="399.31 0 399.31 69.63 392.68 69.63 392.68 0"/><polyline class="cls-2" points="416.06 0 416.06 69.63 409.43 69.63 409.43 0"/><polyline class="cls-2" points="432.81 0 432.81 69.63 426.19 69.63 426.19 0"/><polyline class="cls-2" points="449.57 0 449.57 69.63 442.94 69.63 442.94 0"/><polyline class="cls-2" points="466.32 0 466.32 69.63 459.7 69.63 459.7 0"/><polyline class="cls-2" points="483.08 0 483.08 69.63 476.45 69.63 476.45 0"/><polyline class="cls-2" points="499.83 0 499.83 69.63 493.21 69.63 493.21 0"/><polyline class="cls-2" points="516.59 0 516.59 69.63 509.96 69.63 509.96 0"/><polyline class="cls-2" points="533.34 0 533.34 69.63 526.71 69.63 526.71 0"/><polyline class="cls-2" points="550.1 0 550.1 69.63 543.47 69.63 543.47 0"/><polyline class="cls-2" points="566.85 0 566.85 69.63 560.22 69.63 560.22 0"/><polyline class="cls-2" points="583.6 0 583.6 69.63 576.98 69.63 576.98 0"/><path class="cls-6" d="M597.12,66.56V142.3c-74.51-30-178.38-48.55-293.27-48.55S85.07,112.34,10.57,142.3V66.57c74.5-25.3,178.38-41,293.28-41S522.61,41.27,597.12,66.56Z"/><path class="cls-7" d="M41.24,79.91l11.5,35L47,116.74,35.51,81.79Z"/><path class="cls-7" d="M59,84q1,2.82,2.18,6c.78,2.08,1.46,4.15,2,6.19l4,14.2-5.48,1.56L51.69,76.53l5.91-1.68L71.39,91.3l5.07,6.82.2-.05-2.22-5.94q-1.2-3.22-2-6.24l-4-14.11,5.48-1.56,10.07,35.39-5.88,1.68L64.28,90.73,59.18,84Z"/><path class="cls-7" d="M97.79,70.67l7,29.85L99,101.91,91.92,72.05l-8.24,2-1.41-6,22.44-5.3,1.4,6Z"/><path class="cls-7" d="M140.21,74.28a30.18,30.18,0,0,1,.57,8.07,18.92,18.92,0,0,1-1.56,6.48,12.38,12.38,0,0,1-3.44,4.57A12,12,0,0,1,125,95.49a12.31,12.31,0,0,1-4.93-2.94,19,19,0,0,1-3.87-5.42,30.06,30.06,0,0,1-2.5-7.69,30.07,30.07,0,0,1-.57-8A18.07,18.07,0,0,1,114.75,65a12.09,12.09,0,0,1,3.49-4.45,11.91,11.91,0,0,1,5.11-2.29,11.66,11.66,0,0,1,5.62.22,12.65,12.65,0,0,1,4.89,2.83,17.61,17.61,0,0,1,3.85,5.3A30.43,30.43,0,0,1,140.21,74.28Zm-20.43,4a25,25,0,0,0,1.52,5.12,13.73,13.73,0,0,0,2.21,3.7,7.5,7.5,0,0,0,2.77,2.09,5.43,5.43,0,0,0,6-1.16A7.53,7.53,0,0,0,134,85a13.78,13.78,0,0,0,.67-4.25,26.47,26.47,0,0,0-.52-5.32q-1.14-5.86-3.72-8.75a6,6,0,0,0-10.51,2.05Q118.64,72.41,119.78,78.26Z"/><path class="cls-7" d="M168.29,82.6l.92,5.85-17.91,2.8-.91-5.84,6.4-1-3.61-23-5.39.84-.7-4.47a22.57,22.57,0,0,0,3.69-1.86,14.63,14.63,0,0,0,2.76-2.27l4.38-.68,4.78,30.5Z"/><path class="cls-7" d="M184.73,69.39l.68,5.17-11,1.45-.67-5.18Z"/><path class="cls-7" d="M227.13,84.39A44.75,44.75,0,0,1,219.49,78a65.6,65.6,0,0,1-7-8.54l1.76,18.12-5.19.5-1.74-17.92a62.51,62.51,0,0,1-5.17,9.8,43.93,43.93,0,0,1-6.26,7.75L195,86.5c-.33-.43-.68-.86-1.05-1.27s-.73-.81-1.1-1.19a12.9,12.9,0,0,0-1-1,29.2,29.2,0,0,0,3.42-3.3,48.08,48.08,0,0,0,3.21-4,49.07,49.07,0,0,0,2.86-4.5,42.41,42.41,0,0,0,2.32-4.75l-12.24,1.19-.58-6,15.53-1.5-1.78-18.36,5.19-.51,1.78,18.36,15.56-1.5.58,6-12.2,1.19a43.88,43.88,0,0,0,3.24,4.08,52.26,52.26,0,0,0,3.7,3.74,48.87,48.87,0,0,0,3.93,3.24,35.79,35.79,0,0,0,3.95,2.54c-.27.32-.55.71-.85,1.15s-.59.92-.87,1.41-.55,1-.81,1.5A15.21,15.21,0,0,0,227.13,84.39ZM195.57,45c.65.8,1.3,1.67,1.93,2.61s1.25,1.88,1.83,2.82,1.11,1.87,1.58,2.79a27.8,27.8,0,0,1,1.15,2.54l-4.53,3.09a26.73,26.73,0,0,0-1.05-2.55c-.43-.93-.92-1.88-1.46-2.86s-1.13-1.95-1.76-2.92-1.25-1.88-1.88-2.72Zm28.93-.46c-.41,1.14-.85,2.29-1.31,3.45s-.92,2.29-1.39,3.38-.93,2.13-1.39,3.11-.91,1.87-1.32,2.68l-4.44-1.87c.41-.87.81-1.84,1.22-2.89s.78-2.15,1.15-3.29.71-2.26,1-3.39.59-2.21.82-3.23Z"/><path class="cls-7" d="M268,76.76c-.7-.43-1.57-.9-2.6-1.43s-2.14-1.08-3.31-1.65-2.36-1.14-3.58-1.71-2.34-1.09-3.4-1.56l.72,14-5.16.27-1.19-23-14.88.77-.3-5.86L249,55.89l-.91-17.53,5.13-.27.3,5.91,13.18-.68L267,49l-13.17.68.3,6,17-.88.31,5.86-16.8.87.36,7,1.55-3.22L260,66.67l3.82,1.6c1.28.53,2.49,1.06,3.65,1.6s2.14,1,3,1.44Z"/><path class="cls-7" d="M357.09,83.2l-3.08,1-6.43-21.4L355.74,42l3,1.29L351,63Zm6.34.26-3.13,1-6.38-21.4L362,42.29l3,1.29-7.78,19.66Z"/><path class="cls-7" d="M376.4,72l-2.83,9.25-6.1-.47,12.45-35.94,7.06.54,6.85,37.43-6.3-.48-1.38-9.58Zm1.74-5.6,7.15.54-.59-4.08q-.46-2.93-.86-6T383,50.69h-.16c-.53,2-1.09,4-1.68,6s-1.19,3.94-1.8,5.82Z"/><path class="cls-7" d="M419.93,79.42l-.67,6.13-18.14-2L405.07,47l6,.65-3.29,30.45Z"/><path class="cls-7" d="M442.4,61.71c-.41,1.35-.81,2.7-1.21,4.07s-.83,2.75-1.27,4.16l-5.83,17.55-7.3-1-.58-37.24,6.08.86-.15,18.11q-.09,3-.13,5.88T431.86,80l.16,0q.87-2.89,1.76-5.73l1.79-5.62,6-17.28,5.08.73.94,18.26c.05,1.92.1,3.87.13,5.87s.07,4,.11,6l.2,0q.75-2.91,1.5-5.77c.5-1.9,1-3.79,1.48-5.66l4.87-17.44,5.69.81L450.86,89.88l-7.42-1.06-.78-18.49c0-1.48-.07-2.93-.08-4.35s0-2.84,0-4.25Z"/><path class="cls-7" d="M468.87,83.39l-3.8,8.91-6-1.11,16.16-34.44,7,1.29L485.06,96l-6.21-1.14-.37-9.68ZM471.18,78l7.05,1.3-.15-4.12c-.1-2-.18-4-.22-6.11s-.11-4.16-.2-6.2l-.16,0q-1.11,2.88-2.31,5.76t-2.39,5.6Z"/><path class="cls-7" d="M503.6,86.26l-2.9,13.16-5.88-1.29L497.71,85,493.9,60.25l6.24,1.37,1,9.39c.13,1.46.25,2.87.38,4.24s.27,2.8.41,4.29l.16,0c.76-1.29,1.5-2.53,2.22-3.71s1.44-2.41,2.16-3.67l4.87-8.1,6.13,1.35Z"/><path class="cls-7" d="M536.23,97.46a12.26,12.26,0,0,1-1.81,4,10.22,10.22,0,0,1-3,2.9,10.52,10.52,0,0,1-4,1.46,11.58,11.58,0,0,1-4.74-.31,13.54,13.54,0,0,1-5.39-2.83,15.55,15.55,0,0,1-3.91-5.13l4.63-4a13.81,13.81,0,0,0,2.78,3.78,8.24,8.24,0,0,0,3.6,2.09,5,5,0,0,0,3.76-.21,4,4,0,0,0,2-2.67,4.26,4.26,0,0,0,.12-1.77,3.93,3.93,0,0,0-.58-1.43,7.85,7.85,0,0,0-1.12-1.35c-.46-.44-1-.91-1.55-1.4l-3.38-3a16.29,16.29,0,0,1-1.81-2A9.65,9.65,0,0,1,520.45,83a10.53,10.53,0,0,1-.63-3.07,11.28,11.28,0,0,1,.38-3.6A11.48,11.48,0,0,1,522,72.48a9.86,9.86,0,0,1,2.93-2.73,10.25,10.25,0,0,1,3.76-1.34,10.52,10.52,0,0,1,4.26.26,11.67,11.67,0,0,1,4.67,2.47,12.52,12.52,0,0,1,3.29,4.48l-4.11,3.71a11.9,11.9,0,0,0-2.32-2.92,7.43,7.43,0,0,0-3.11-1.63,4.71,4.71,0,0,0-3.33.19,3.6,3.6,0,0,0-1.86,2.47,3.35,3.35,0,0,0-.05,1.74,4.7,4.7,0,0,0,.67,1.46A7.64,7.64,0,0,0,528,82c.48.43,1,.88,1.55,1.33l3.31,3a11.88,11.88,0,0,1,3.35,4.7A10.66,10.66,0,0,1,536.23,97.46Z"/><path class="cls-7" d="M552.82,95.5l-13.3,17.94-2.58-2L549.6,94.48,549,73.35l3.29-.18Zm6,1.91-13.32,17.94-2.55-2,12.62-16.94L555,75.26l3.25-.19Z"/></g><path class="cls-4" d="M292.27,49.9c0,.16,0,.34,0,.52s0,.39,0,.58a5.78,5.78,0,0,1,0,.58c0,.2,0,.37,0,.53v2.77h-1V48.23h1.19l1.12,3.13c.07.2.13.41.2.63l.21.64h0l.21-.64c.07-.22.14-.43.2-.63l1.08-3.13h1.2v6.65h-1V52.11c0-.16,0-.33,0-.53a5.78,5.78,0,0,1,0-.58c0-.19,0-.39,0-.58s0-.36,0-.52h0l-.53,1.59-1,2.79h-.63l-1-2.79-.52-1.59Z"/><path class="cls-4" d="M303.83,51.9a5.23,5.23,0,0,1-.17,1.41,2.56,2.56,0,0,1-.47.95,1.85,1.85,0,0,1-.75.55,2.5,2.5,0,0,1-1,.18,2.45,2.45,0,0,1-1-.18,1.93,1.93,0,0,1-.73-.55,2.41,2.41,0,0,1-.46-.95,5.26,5.26,0,0,1-.16-1.41V48.23h1V52a3.06,3.06,0,0,0,.1.87,1.67,1.67,0,0,0,.26.57,1,1,0,0,0,.4.3,1.31,1.31,0,0,0,.5.09,1.39,1.39,0,0,0,.5-.09,1,1,0,0,0,.41-.3,1.67,1.67,0,0,0,.26-.57,3.06,3.06,0,0,0,.1-.87V48.23h1.09Z"/><path class="cls-4" d="M310.18,53a1.88,1.88,0,0,1-.59,1.41,2.09,2.09,0,0,1-.68.41A2.59,2.59,0,0,1,308,55a3.06,3.06,0,0,1-1.24-.26,3,3,0,0,1-1-.73l.62-.92a2.76,2.76,0,0,0,.37.31,2.13,2.13,0,0,0,.42.23,2.32,2.32,0,0,0,.44.16,1.72,1.72,0,0,0,.44.06,2.71,2.71,0,0,0,.41,0,1.1,1.1,0,0,0,.33-.14.73.73,0,0,0,.24-.22.57.57,0,0,0,.09-.32.66.66,0,0,0-.08-.32.78.78,0,0,0-.23-.25,1.69,1.69,0,0,0-.33-.19l-.4-.18-.78-.33a2.6,2.6,0,0,1-.46-.25,1.79,1.79,0,0,1-.41-.37,2.21,2.21,0,0,1-.3-.52A1.78,1.78,0,0,1,306,50a2,2,0,0,1,.16-.77,1.75,1.75,0,0,1,.42-.61,2,2,0,0,1,.66-.4,2.45,2.45,0,0,1,.83-.14,2.64,2.64,0,0,1,1.08.22A2.69,2.69,0,0,1,310,49l-.58.87a2.5,2.5,0,0,0-.66-.45,1.85,1.85,0,0,0-.78-.16,1.47,1.47,0,0,0-.36,0,.81.81,0,0,0-.3.13.63.63,0,0,0-.21.22.53.53,0,0,0-.08.31.49.49,0,0,0,.09.3.91.91,0,0,0,.24.24,1.36,1.36,0,0,0,.34.18l.39.16.77.32a2.22,2.22,0,0,1,.5.28,1.77,1.77,0,0,1,.68.9A2.3,2.3,0,0,1,310.18,53Z"/><path class="cls-4" d="M316.13,53.78v1.1h-4.06v-1.1h1.48V49.34h-1.48V48.23h4.06v1.11h-1.5v4.44Z"/><path class="cls-4" d="M322.75,54a2.77,2.77,0,0,1-.86.73,2.33,2.33,0,0,1-1.08.25,2.79,2.79,0,0,1-1.09-.22,2.43,2.43,0,0,1-.87-.65,3,3,0,0,1-.58-1.07,4.63,4.63,0,0,1-.21-1.46,5.07,5.07,0,0,1,.2-1.47,3.36,3.36,0,0,1,.57-1.08,2.52,2.52,0,0,1,.88-.68,2.57,2.57,0,0,1,1.11-.24,2.12,2.12,0,0,1,.57.07,2.53,2.53,0,0,1,.48.19,2.42,2.42,0,0,1,.41.27c.13.11.24.22.35.33l-.59.86a2.63,2.63,0,0,0-.54-.42,1.34,1.34,0,0,0-.66-.16,1.58,1.58,0,0,0-.69.15,1.52,1.52,0,0,0-.52.46,2,2,0,0,0-.34.72,3.9,3.9,0,0,0,0,1.92,2.4,2.4,0,0,0,.34.72,1.5,1.5,0,0,0,.53.45,1.58,1.58,0,0,0,.69.15,1.34,1.34,0,0,0,.73-.2,2.48,2.48,0,0,0,.59-.48Z"/><path class="cls-4" d="M301,70.17a5.38,5.38,0,0,1-.18,1.45,3.42,3.42,0,0,1-.54,1.1,2.43,2.43,0,0,1-2,.92,2.44,2.44,0,0,1-1.08-.24,2.53,2.53,0,0,1-.85-.68,3.45,3.45,0,0,1-.56-1.1,5.32,5.32,0,0,1,0-2.89,3.09,3.09,0,0,1,.55-1.07,2.36,2.36,0,0,1,.85-.66,2.7,2.7,0,0,1,2.18,0,2.28,2.28,0,0,1,.85.67,3.48,3.48,0,0,1,.55,1.07A4.85,4.85,0,0,1,301,70.17Zm-4.26,0a3.64,3.64,0,0,0,.11,1,2.38,2.38,0,0,0,.32.72,1.48,1.48,0,0,0,.5.47,1.4,1.4,0,0,0,1.3,0,1.48,1.48,0,0,0,.5-.47,2.16,2.16,0,0,0,.32-.72,3.64,3.64,0,0,0,.11-1,3.49,3.49,0,0,0-.11-1,2.11,2.11,0,0,0-.32-.71,1.32,1.32,0,0,0-.5-.44,1.4,1.4,0,0,0-1.3,0,1.4,1.4,0,0,0-.5.44,2.32,2.32,0,0,0-.32.71A3.49,3.49,0,0,0,296.78,70.17Z"/><path class="cls-4" d="M304.07,71.18v2.35H303V66.88h1.94a3.54,3.54,0,0,1,.95.11,2,2,0,0,1,.75.35,1.66,1.66,0,0,1,.49.64,2.62,2.62,0,0,1,.17,1,2.42,2.42,0,0,1-.18,1,1.82,1.82,0,0,1-.48.69,2.12,2.12,0,0,1-.74.4,3,3,0,0,1-.92.14Zm0-1.05h.82c.89,0,1.34-.39,1.34-1.16a.89.89,0,0,0-.36-.82,1.92,1.92,0,0,0-1-.22h-.79Z"/><path class="cls-4" d="M312.88,72.42v1.11h-3.81V66.88h3.71V68h-2.64v1.56h2v1.11h-2v1.77Z"/><path class="cls-4" d="M315.84,68.53c0,.36.05.75.08,1.15s0,.8,0,1.19v2.66h-1V66.88H316l1.82,3.47.72,1.52h0c0-.35-.07-.73-.1-1.15s0-.82,0-1.21V66.88h1v6.65h-1.1L316.59,70l-.71-1.5Z"/></svg>