<svg id="圖層_1" data-name="圖層 1" xmlns="http://www.w3.org/2000/svg" viewBox="0 0 77.29 77.29"><defs><style>.cls-1{fill:#255c3f;stroke:#fbf5eb;stroke-width:0.18px;}.cls-1,.cls-2{stroke-miterlimit:10;}.cls-2{fill:#f5e9d4;stroke:#255c3f;stroke-width:0.71px;}</style></defs><circle class="cls-1" cx="38.64" cy="38.64" r="36.01"/><path class="cls-1" d="M38.64,77.2A38.56,38.56,0,1,1,77.2,38.64,38.6,38.6,0,0,1,38.64,77.2Zm0-72A33.47,33.47,0,1,0,72.11,38.64,33.5,33.5,0,0,0,38.64,5.18Z"/><path class="cls-2" d="M25.92,38c0-4.22.1-8.44,0-12.64-.09-2.78,1.94-4.91,4.53-3.33,7,4.32,14.13,8.52,21.2,12.76a3.67,3.67,0,0,1,0,6.5L34,51.91c-1.19.72-2.41,1.38-3.57,2.17-2.45,1.67-4.61-.39-4.52-3.31C26,46.53,25.92,42.28,25.92,38Z"/></svg>