<svg id="圖層_1" data-name="圖層 1" xmlns="http://www.w3.org/2000/svg" viewBox="0 0 108.9 108.9"><defs><style>.cls-1{fill:#f6ead5;stroke:#245c3f;stroke-miterlimit:10;stroke-width:3px;}.cls-2{fill:#245c3f;}</style></defs><path class="cls-1" d="M54.45,54.37S12.18,43.06,12,43.08a11.29,11.29,0,0,0-10,11.16v0a11.28,11.28,0,0,0,9.88,11.24c.15,0,42.51-11,42.51-11Z"/><path class="cls-2" d="M11.76,67.53h-.15A13.32,13.32,0,0,1,0,54.27H0v0A13.33,13.33,0,0,1,11.79,41c.51-.05.4-.1,43.19,11.35a2,2,0,0,1,1.53,2v.15a2.06,2.06,0,0,1-1.55,2C15.73,66.69,12.48,67.54,11.76,67.53ZM4.13,54.24a9.21,9.21,0,0,0,7.71,9.14c2.79-.69,22-5.64,34.77-9C33.81,51,14.7,45.89,11.91,45.18A9.19,9.19,0,0,0,4.13,54.24Z"/><path class="cls-1" d="M54.45,54.52S96.71,65.84,96.86,65.81a11.28,11.28,0,0,0,10-11.15v0A11.29,11.29,0,0,0,97,43.42c-.15,0-42.5,10.95-42.5,10.95Z"/><path class="cls-2" d="M97,67.88c-.62,0-3.73-.84-43-11.37a2.07,2.07,0,0,1-1.53-2v-.14a2.07,2.07,0,0,1,1.55-2c42.75-11.08,42.71-11.07,43.26-11A13.36,13.36,0,0,1,108.9,54.63v.06A13.33,13.33,0,0,1,97.09,67.87ZM62.28,54.48C75.07,57.9,94.17,63,97,63.71a9.21,9.21,0,0,0,.09-18.19C94.24,46.21,75.1,51.16,62.28,54.48Z"/><path class="cls-1" d="M54.48,54.39s-30.94-30.93-31.07-31A11.29,11.29,0,0,0,9.18,28.08h0l0,0,0,0a11.28,11.28,0,0,0,2.94,14.67c.12.1,42.29,11.76,42.29,11.76Z"/><path class="cls-2" d="M54.41,56.58a2,2,0,0,1-.55-.08c-42.58-11.78-42.58-11.78-43-12.14A13.34,13.34,0,0,1,7.39,27l.11-.16a13.38,13.38,0,0,1,16.73-5.37c.52.24.52.24,31.71,31.42a2,2,0,0,1,.37,2.41l-.06.13A2.1,2.1,0,0,1,54.41,56.58ZM13.09,40.89c2.76.79,21.81,6.08,34.58,9.61C38.29,41.13,24.3,27.16,22.25,25.16A9.19,9.19,0,0,0,11.05,29a1.94,1.94,0,0,1-.15.24A9.23,9.23,0,0,0,13.09,40.89Z"/><path class="cls-1" d="M54.41,54.51s30.94,30.93,31.08,31a11.29,11.29,0,0,0,14.22-4.67v0l0,0h0a11.3,11.3,0,0,0-2.93-14.69c-.14-.08-42.3-11.75-42.3-11.75Z"/><path class="cls-2" d="M89.89,88.49a13.19,13.19,0,0,1-5.22-1.1c-.48-.18-.48-.18-31.72-31.42a2.06,2.06,0,0,1-.37-2.41l.07-.13a2.08,2.08,0,0,1,2.38-1c42.47,11.75,42.5,11.77,42.88,12a13.41,13.41,0,0,1,3.59,17.46,1.4,1.4,0,0,0-.1.16A13.47,13.47,0,0,1,89.89,88.49Zm-3.26-4.76a9.21,9.21,0,0,0,11.3-4l0-.07A9.25,9.25,0,0,0,95.81,68C93,67.21,74,61.93,61.23,58.4,70.59,67.76,84.57,81.72,86.63,83.73Z"/><path class="cls-1" d="M54.5,54.41S43.18,12.16,43.09,12A11.28,11.28,0,0,0,28.43,9h0l0,0h0a11.26,11.26,0,0,0-4.78,14.18c.06.14,30.74,31.32,30.74,31.32Z"/><path class="cls-2" d="M54.38,56.55a2.06,2.06,0,0,1-1.46-.62c-31-31.48-31-31.48-31.19-32A13.31,13.31,0,0,1,27.41,7.19a1.88,1.88,0,0,1,.5-.27,13.35,13.35,0,0,1,16.84,3.89c.33.45.33.45,11.75,43.07a2.05,2.05,0,0,1-.93,2.3l-.11.07A2.12,2.12,0,0,1,54.38,56.55ZM25.42,22c2,2.07,15.84,16.16,25.12,25.6C47.11,34.84,42,15.76,41.22,13a9.22,9.22,0,0,0-11.76-2.22h0l-.13.07A9.28,9.28,0,0,0,25.42,22Z"/><path class="cls-1" d="M54.39,54.48S65.71,96.74,65.81,96.86a11.28,11.28,0,0,0,14.65,3.06h0l0,0h0a11.29,11.29,0,0,0,4.79-14.18C85.19,85.6,54.5,54.41,54.5,54.41Z"/><path class="cls-2" d="M74.84,103.49a13.39,13.39,0,0,1-10.69-5.4c-.32-.4-.32-.4-11.75-43.07a2.07,2.07,0,0,1,.84-2.25l.11-.08A2.08,2.08,0,0,1,56,53c31,31.49,31,31.49,31.2,32a13.34,13.34,0,0,1-5.61,16.67h0l-.17.1A13.07,13.07,0,0,1,74.84,103.49ZM67.68,95.9a9.23,9.23,0,0,0,11.75,2.23l.15-.08a9.31,9.31,0,0,0,3.9-11.18c-2-2.07-15.84-16.17-25.13-25.61C61.78,74,66.9,93.12,67.68,95.9Z"/><path class="cls-1" d="M54.52,54.45S65.84,12.19,65.81,12a11.27,11.27,0,0,0-11.16-10h0A11.29,11.29,0,0,0,43.41,12c0,.15,11,42.5,11,42.5Z"/><path class="cls-2" d="M54.51,56.52h-.14a2.07,2.07,0,0,1-2-1.55C41.3,12.25,41.3,12.25,41.36,11.72A13.35,13.35,0,0,1,54.65,0h0A13.34,13.34,0,0,1,67.86,11.8c.1.45.1.45-11.35,43.19A2.07,2.07,0,0,1,54.51,56.52Zm0-2.07h0Zm-9-42.6c.7,2.8,5.65,21.93,9,34.75,4-14.74,8.56-32.06,9.23-34.67a9.22,9.22,0,0,0-18.2-.08Z"/><path class="cls-1" d="M54.38,54.45S43.06,96.71,43.08,96.86a11.3,11.3,0,0,0,11.16,10h0A11.27,11.27,0,0,0,65.47,97c0-.15-10.95-42.5-10.95-42.5Z"/><path class="cls-2" d="M54.25,108.9h0A13.35,13.35,0,0,1,41,97.1c-.06-.55-.06-.55,11.36-43.18a2.06,2.06,0,0,1,1.94-1.53h.14a2,2,0,0,1,2.05,1.54c11.11,42.84,11.11,42.84,11,43.47a13.27,13.27,0,0,1-13.23,11.5ZM45.18,97A9.21,9.21,0,0,0,63.37,97c-.68-2.77-5.63-21.91-8.95-34.74C51,75.1,45.89,94.18,45.18,97Z"/><path class="cls-1" d="M54.5,54.48s30.94-30.93,31-31.08A11.28,11.28,0,0,0,80.82,9.19h0l0,0h0a11.28,11.28,0,0,0-14.68,2.94c-.09.12-11.75,42.28-11.75,42.28Z"/><path class="cls-2" d="M54.5,56.55a2,2,0,0,1-1.16-.36l-.11-.08a2.05,2.05,0,0,1-.83-2.25c11.77-42.57,11.77-42.57,12.14-43a13.32,13.32,0,0,1,17.2-3.5l.16.09.15.1a13.26,13.26,0,0,1,5.34,16.69c-.19.49-.19.49-31.43,31.72A2,2,0,0,1,54.5,56.55ZM68,13.1c-.8,2.76-6.08,21.8-9.61,34.56,9.36-9.36,23.31-23.33,25.33-25.4a9.22,9.22,0,0,0-4-11.29h0l0,0h0A9.26,9.26,0,0,0,68,13.1Z"/><path class="cls-1" d="M54.38,54.42S23.46,85.35,23.4,85.5a11.27,11.27,0,0,0,4.68,14.21v0l0,0h0a11.29,11.29,0,0,0,14.68-2.94c.08-.12,11.74-42.29,11.74-42.29Z"/><path class="cls-2" d="M33.67,103.31a13.32,13.32,0,0,1-6.51-1.74,1.65,1.65,0,0,1-.31-.2,13.24,13.24,0,0,1-5.34-16.69c.19-.48.19-.48,31.41-31.72a2.06,2.06,0,0,1,2.44-.36l.12.06a2.07,2.07,0,0,1,1,2.37c-11.75,42.49-11.75,42.49-12,42.89A13.44,13.44,0,0,1,33.67,103.31ZM29.2,98A9.22,9.22,0,0,0,40.89,95.8C41.69,93,47,74,50.49,61.23,41.13,70.6,27.18,84.58,25.17,86.64A9.22,9.22,0,0,0,29,97.87Z"/><path class="cls-1" d="M54.48,54.51S96.73,43.18,96.87,43.08a11.27,11.27,0,0,0,3-14.64v0l0,0h0a11.27,11.27,0,0,0-14.18-4.79c-.15.05-31.33,30.74-31.33,30.74Z"/><path class="cls-2" d="M54.47,56.58a2.08,2.08,0,0,1-1.83-1.13l-.06-.12A2.08,2.08,0,0,1,53,52.91c31.51-31,31.51-31,32.08-31.21a13.31,13.31,0,0,1,16.67,5.7h0l.05.1A13.31,13.31,0,0,1,98.1,44.74c-.46.33-.48.34-43.08,11.77A2.67,2.67,0,0,1,54.47,56.58Zm32.4-31.16c-2.07,2-16.17,15.85-25.62,25.13C74.06,47.12,93.17,42,95.92,41.21a9.21,9.21,0,0,0,2.21-11.75h0A9.25,9.25,0,0,0,86.87,25.42Z"/><path class="cls-1" d="M54.41,54.39S12.15,65.72,12,65.81A11.29,11.29,0,0,0,9,80.47H9l0,0v0a11.3,11.3,0,0,0,14.19,4.78c.13-.06,31.32-30.74,31.32-30.74Z"/><path class="cls-2" d="M18.73,88.21A13.36,13.36,0,0,1,7.18,81.49h0A13.36,13.36,0,0,1,10.8,64.15c.45-.32.45-.32,43.08-11.76a2.07,2.07,0,0,1,2.37,1.06l.07.12A2.06,2.06,0,0,1,55.93,56c-31.46,31-31.46,31-31.95,31.17A13.49,13.49,0,0,1,18.73,88.21Zm-7.9-8.66A9.21,9.21,0,0,0,22,83.48c2.08-2,16.17-15.85,25.61-25.14C34.84,61.78,15.76,66.91,13,67.68a9.24,9.24,0,0,0-2.26,11.69S10.79,79.49,10.83,79.55Z"/><path class="cls-1" d="M54.4,65.72A11.27,11.27,0,1,0,43.18,54.41,11.28,11.28,0,0,0,54.4,65.72Z"/><path class="cls-2" d="M54.39,67.78A13.34,13.34,0,1,1,67.78,54.5,13.33,13.33,0,0,1,54.39,67.78Zm.09-22.53a9.2,9.2,0,1,0,9.17,9.24A9.21,9.21,0,0,0,54.48,45.25Z"/></svg>